<?xml version="1.0" standalone="no"?><!DOCTYPE svg PUBLIC "-//W3C//DTD SVG 1.1//EN" "http://www.w3.org/Graphics/SVG/1.1/DTD/svg11.dtd"><svg t="1676959116984" class="icon" viewBox="0 0 1024 1024" version="1.1" xmlns="http://www.w3.org/2000/svg" p-id="7403" xmlns:xlink="http://www.w3.org/1999/xlink" width="200" height="200"><path d="M632.92 960H242.27c-43.6 0-79.06-35.46-79.06-79.06V291.89c0-43.6 35.46-79.06 79.06-79.06H512c14.55 0 26.35 11.8 26.35 26.35v120.9c0 14.53 11.83 26.35 26.35 26.35h120.92c14.55 0 26.35 11.8 26.35 26.35v468.15c0.01 43.61-35.46 79.07-79.05 79.07zM242.27 265.53c-14.53 0-26.35 11.83-26.35 26.35v589.06c0 14.53 11.83 26.35 26.35 26.35h390.65c14.53 0 26.35-11.83 26.35-26.35v-441.8h-94.56c-43.6 0-79.06-35.46-79.06-79.06v-94.55H242.27z" fill="#333333" p-id="7404"></path><path d="M685.62 439.14H564.71c-43.6 0-79.06-35.46-79.06-79.06v-120.9c0-10.65 6.42-20.27 16.26-24.35a26.324 26.324 0 0 1 28.72 5.71l173.62 173.61a26.342 26.342 0 0 1 5.71 28.72 26.33 26.33 0 0 1-24.34 16.27zM538.35 302.8v57.29c0 14.53 11.83 26.35 26.35 26.35h57.29l-83.64-83.64z" fill="#333333" p-id="7405"></path><path d="M781.73 811.19h-96.11c-14.55 0-26.35-11.8-26.35-26.35V423.7L501.09 265.53H338.38c-14.55 0-26.35-11.8-26.35-26.35v-96.12c0-43.6 35.46-79.06 79.06-79.06h390.65c43.6 0 79.06 35.46 79.06 79.06v589.07c-0.01 43.59-35.47 79.06-79.07 79.06z m-69.75-52.71h69.76c14.53 0 26.35-11.83 26.35-26.35V143.06c0-14.53-11.83-26.35-26.35-26.35H391.08c-14.53 0-26.35 11.83-26.35 26.35v69.77H512c6.99 0 13.69 2.78 18.63 7.72l173.62 173.61a26.366 26.366 0 0 1 7.72 18.63v345.69z" fill="#333333" p-id="7406"></path><path d="M437.6 414.35H288.78c-14.55 0-26.35-11.8-26.35-26.35s11.8-26.35 26.35-26.35H437.6c14.55 0 26.35 11.8 26.35 26.35s-11.8 26.35-26.35 26.35zM586.41 563.16H288.78c-14.55 0-26.35-11.8-26.35-26.35s11.8-26.35 26.35-26.35h297.63c14.55 0 26.35 11.8 26.35 26.35 0.01 14.55-11.79 26.35-26.35 26.35zM586.41 711.98H288.78c-14.55 0-26.35-11.8-26.35-26.35s11.8-26.35 26.35-26.35h297.63c14.55 0 26.35 11.8 26.35 26.35 0.01 14.55-11.79 26.35-26.35 26.35z" fill="#333333" p-id="7407"></path></svg>