<?xml version="1.0" standalone="no"?><!DOCTYPE svg PUBLIC "-//W3C//DTD SVG 1.1//EN" "http://www.w3.org/Graphics/SVG/1.1/DTD/svg11.dtd"><svg t="1651822071162" class="icon" viewBox="0 0 1024 1024" version="1.1" xmlns="http://www.w3.org/2000/svg" p-id="7181" xmlns:xlink="http://www.w3.org/1999/xlink" width="200" height="200"><defs><style type="text/css">@font-face { font-family: feedback-iconfont; src: url("//at.alicdn.com/t/font_1031158_u69w8yhxdu.woff2?t=1630033759944") format("woff2"), url("//at.alicdn.com/t/font_1031158_u69w8yhxdu.woff?t=1630033759944") format("woff"), url("//at.alicdn.com/t/font_1031158_u69w8yhxdu.ttf?t=1630033759944") format("truetype"); }
</style></defs><path d="M888.4 425.3c-43.1-43.1-99.5-68.2-160-71.3-13.6-44.2-39.7-84-75.3-114.4-44.2-37.6-100.5-58.4-158.6-58.4-65.3 0-126.7 25.4-172.9 71.6-43.6 43.7-68.8 100.9-71.4 162.2-46.5 6.2-89.5 27.3-123.3 61C86.3 516.6 64 570.6 64 627.9s22.3 111.3 62.9 151.9c40.6 40.6 94.5 62.9 151.9 62.9h436.6c65.3 0 126.7-25.4 172.9-71.6S960 663.5 960 598.2c0-65.3-25.4-126.8-71.6-172.9zM715.4 770H278.8c-78.3 0-142-63.7-142-142s63.7-142 142-142c2.3 0 4.7 0.1 7.1 0.2l42.8 2.1-4.9-42.6c-0.8-6.6-1.1-13.3-1.1-19.8 0-94.7 77.1-171.8 171.8-171.8 40.8 0 80.3 14.5 111.3 41 21.2 18.1 37.6 41 47.9 66.4-41.8 10.8-80 32.5-111.3 63.8-46.2 46.2-71.6 107.6-71.6 172.9 0 20.1 16.3 36.4 36.4 36.4 20.1 0 36.4-16.3 36.4-36.4 0-91.6 72.1-166.7 162.5-171.5 0.4 0 0.9 0 1.3-0.1 0.9 0 1.8-0.1 2.7-0.1h5.2c94.7 0 171.8 77.1 171.8 171.8 0.1 94.6-77 171.7-171.7 171.7z" p-id="7182"></path></svg>