<?xml version="1.0" standalone="no"?><!DOCTYPE svg PUBLIC "-//W3C//DTD SVG 1.1//EN" "http://www.w3.org/Graphics/SVG/1.1/DTD/svg11.dtd"><svg t="1651821769963" class="icon" viewBox="0 0 1024 1024" version="1.1" xmlns="http://www.w3.org/2000/svg" p-id="3825" xmlns:xlink="http://www.w3.org/1999/xlink" width="200" height="200"><defs><style type="text/css">@font-face { font-family: feedback-iconfont; src: url("//at.alicdn.com/t/font_1031158_u69w8yhxdu.woff2?t=1630033759944") format("woff2"), url("//at.alicdn.com/t/font_1031158_u69w8yhxdu.woff?t=1630033759944") format("woff"), url("//at.alicdn.com/t/font_1031158_u69w8yhxdu.ttf?t=1630033759944") format("truetype"); }
</style></defs><path d="M880 48a96 96 0 0 1 96 96v736a96 96 0 0 1-96 96H144a96 96 0 0 1-96-96V144a96 96 0 0 1 96-96z m0 64H144a32 32 0 0 0-32 32v736a32 32 0 0 0 32 32h736a32 32 0 0 0 32-32V144a32 32 0 0 0-32-32zM368.96 288a32 32 0 0 1 0 64H345.6V640h23.36a32 32 0 1 1 0 64H257.92a32 32 0 1 1 0-64h23.68V352h-23.68a32 32 0 0 1 0-64z m115.136 344.64l5.568 0.256a33.92 33.92 0 0 1 19.456 9.344c12.8 14.784 12.8 36.736 0 51.52a35.84 35.84 0 0 1-50.24 0 39.36 39.36 0 0 1 0-51.52 33.92 33.92 0 0 1 25.28-9.6h-0.064z m123.904 0a33.92 33.92 0 0 1 24.96 9.6 38.4 38.4 0 0 1 0 51.52 35.84 35.84 0 0 1-50.24 0 39.36 39.36 0 0 1 0-51.52 33.92 33.92 0 0 1 25.28-9.6z m123.2 0a34.56 34.56 0 0 1 25.28 9.6c12.8 14.784 12.8 36.736 0 51.52a36.48 36.48 0 0 1-50.56 0 39.36 39.36 0 0 1 0-51.52 34.56 34.56 0 0 1 25.28-9.6z" p-id="3826"></path></svg>