<?xml version="1.0" standalone="no"?><!DOCTYPE svg PUBLIC "-//W3C//DTD SVG 1.1//EN" "http://www.w3.org/Graphics/SVG/1.1/DTD/svg11.dtd"><svg t="1651821888762" class="icon" viewBox="0 0 1024 1024" version="1.1" xmlns="http://www.w3.org/2000/svg" p-id="6946" xmlns:xlink="http://www.w3.org/1999/xlink" width="200" height="200"><defs><style type="text/css">@font-face { font-family: feedback-iconfont; src: url("//at.alicdn.com/t/font_1031158_u69w8yhxdu.woff2?t=1630033759944") format("woff2"), url("//at.alicdn.com/t/font_1031158_u69w8yhxdu.woff?t=1630033759944") format("woff"), url("//at.alicdn.com/t/font_1031158_u69w8yhxdu.ttf?t=1630033759944") format("truetype"); }
</style></defs><path d="M864 832a32 32 0 0 1 0 64H160a32 32 0 0 1 0-64h704zM544 288a64 64 0 0 1 64 64v352a64 64 0 0 1-64 64h-64a64 64 0 0 1-64-64V352a64 64 0 0 1 64-64h64z m-256 160a64 64 0 0 1 64 64v192a64 64 0 0 1-64 64H224a64 64 0 0 1-64-64v-192a64 64 0 0 1 64-64h64zM800 128a64 64 0 0 1 64 64v512a64 64 0 0 1-64 64h-64a64 64 0 0 1-64-64V192a64 64 0 0 1 64-64h64z m-256 224h-64v352h64V352z m-256 160H224v192h64v-192zM800 192h-64v512h64V192z" p-id="6947"></path></svg>