<?xml version="1.0" standalone="no"?><!DOCTYPE svg PUBLIC "-//W3C//DTD SVG 1.1//EN" "http://www.w3.org/Graphics/SVG/1.1/DTD/svg11.dtd"><svg t="1651821603533" class="icon" viewBox="0 0 1024 1024" version="1.1" xmlns="http://www.w3.org/2000/svg" p-id="1390" xmlns:xlink="http://www.w3.org/1999/xlink" width="200" height="200"><defs><style type="text/css">@font-face { font-family: feedback-iconfont; src: url("//at.alicdn.com/t/font_1031158_u69w8yhxdu.woff2?t=1630033759944") format("woff2"), url("//at.alicdn.com/t/font_1031158_u69w8yhxdu.woff?t=1630033759944") format("woff"), url("//at.alicdn.com/t/font_1031158_u69w8yhxdu.ttf?t=1630033759944") format("truetype"); }
</style></defs><path d="M645.4 896.4h-520C92.7 896.4 66 868.8 66 835V273.9c0-33.9 26.6-61.4 59.4-61.4h114.7L258 165c8.8-23.4 31.1-39.1 55.4-39.1h336c24.5 0 46.2 15.3 55.3 38.9l0.1 0.2 17.9 47.4h114.7c32.7 0 59.4 27.6 59.4 61.4V584h-64V276.4H678.3l-32.6-86.5H317l-32.6 86.5H130v555.9h515.4v64.1z" p-id="1391"></path><path d="M481.3 736.8c-106.4 0-193-86.6-193-193s86.6-193 193-193 193 86.6 193 193-86.5 193-193 193z m0-322c-71.1 0-129 57.9-129 129s57.9 129 129 129 129-57.9 129-129-57.8-129-129-129zM873.3 736.8c-21.7 0-44.5-10.4-68.6-21.4-20-9.1-42.7-19.4-57.3-19.4-22.8 0-41.4 23.6-41.6 23.9L654 682.2c3.7-5.1 38.1-50.2 93.3-50.2 28.5 0 57.9 13.4 83.8 25.2 14.5 6.6 34.3 15.6 42.1 15.6 10.8 0 29.3-14.4 38.5-24.9l-0.1 0.1 48.3 41.9c-1 1.2-10.3 11.7-24.2 22.4-21.1 16.3-42.1 24.5-62.4 24.5zM873.3 852.2c-21.7 0-44.5-10.4-68.6-21.4-20-9.1-42.7-19.4-57.3-19.4-22.8 0-41.4 23.6-41.6 23.9L654 797.6c3.7-5.1 38.1-50.2 93.3-50.2 28.5 0 57.9 13.4 83.8 25.2 14.5 6.6 34.3 15.6 42.1 15.6 10.8 0 29.3-14.4 38.5-24.9l-0.1 0.1 48.3 41.9c-1 1.2-10.3 11.7-24.2 22.4-21.1 16.2-42.1 24.5-62.4 24.5z" p-id="1392"></path></svg>