<?xml version="1.0" standalone="no"?><!DOCTYPE svg PUBLIC "-//W3C//DTD SVG 1.1//EN" "http://www.w3.org/Graphics/SVG/1.1/DTD/svg11.dtd"><svg t="1676960631927" class="icon" viewBox="0 0 1024 1024" version="1.1" xmlns="http://www.w3.org/2000/svg" p-id="71599" xmlns:xlink="http://www.w3.org/1999/xlink" width="200" height="200"><path d="M481.28 482.133333c8.533333-7.970133 18.773333-11.946667 30.72-11.946666s21.896533 3.976533 29.866667 11.946666c8.533333 8.533333 12.8 18.773333 12.8 30.72s-4.266667 21.896533-12.8 29.866667c-7.970133 8.533333-17.92 12.8-29.866667 12.8s-22.186667-4.266667-30.72-12.8c-7.970133-7.970133-11.946667-17.92-11.946667-29.866667s3.976533-22.186667 11.946667-30.72zM209.92 831.146667a17.015467 17.015467 0 0 1-12.066133-5.000534C111.872 740.130133 68.266667 634.7264 68.266667 512.853333c0-121.856 43.588267-227.549867 129.536-314.094933a17.066667 17.066667 0 0 1 24.2176 24.046933C142.6432 302.728533 102.4 400.3328 102.4 512.853333c0 112.503467 40.226133 209.783467 119.586133 289.160534A17.0496 17.0496 0 0 1 209.92 831.146667z m603.306667 0a17.0496 17.0496 0 0 1-12.032-29.166934C881.1008 722.619733 921.6 625.339733 921.6 512.853333c0-112.503467-40.226133-209.783467-119.586133-289.160533a17.0496 17.0496 0 1 1 24.132266-24.132267C912.128 285.559467 955.733333 390.9632 955.733333 512.853333c0 121.924267-43.895467 227.328-130.474666 313.326934a16.930133 16.930133 0 0 1-12.032 4.9664z m-90.453334-90.453334a17.066667 17.066667 0 0 1-12.014933-29.201066c55.7568-55.1936 82.8416-120.183467 82.8416-198.656 0-77.397333-27.5968-144.247467-82.039467-198.7072a17.0496 17.0496 0 1 1 24.132267-24.132267c61.064533 61.098667 92.040533 136.072533 92.040533 222.839467 0 86.8352-31.2832 161.809067-92.945066 222.9248a17.066667 17.066667 0 0 1-12.014934 4.932266z m-422.4 0a17.015467 17.015467 0 0 1-12.066133-5.000533c-61.0816-61.0816-92.040533-136.072533-92.040533-222.8736 0-86.749867 30.941867-161.979733 91.989333-223.6416a17.0496 17.0496 0 1 1 24.251733 24.0128c-55.2448 55.808-82.107733 121.105067-82.107733 199.611733 0 77.4144 27.5968 144.2816 82.039467 198.741334A17.0496 17.0496 0 0 1 300.373333 740.693333z m90.453334-91.306666a17.015467 17.015467 0 0 1-12.066134-5.000534C342.596267 608.238933 324.266667 563.985067 324.266667 512.853333c0-50.9952 18.261333-95.761067 54.289066-133.0176a17.066667 17.066667 0 1 1 24.541867 23.722667C373.009067 434.653867 358.4 470.408533 358.4 512.853333c0 42.325333 14.557867 77.4656 44.4928 107.400534a17.0496 17.0496 0 0 1-12.066133 29.1328z m240.64 0a17.083733 17.083733 0 0 1-11.8784-29.3376C650.5472 590.1312 665.6 555.0592 665.6 512.853333c0-41.8304-14.865067-77.2608-45.448533-108.356266a17.0496 17.0496 0 1 1 24.337066-23.927467C681.147733 417.826133 699.733333 462.336 699.733333 512.853333c0 51.2512-18.978133 95.573333-56.405333 131.7376a17.066667 17.066667 0 0 1-11.861333 4.795734z" p-id="71600"></path></svg>