<?xml version="1.0" standalone="no"?><!DOCTYPE svg PUBLIC "-//W3C//DTD SVG 1.1//EN" "http://www.w3.org/Graphics/SVG/1.1/DTD/svg11.dtd"><svg t="1676959955287" class="icon" viewBox="0 0 1024 1024" version="1.1" xmlns="http://www.w3.org/2000/svg" p-id="24092" xmlns:xlink="http://www.w3.org/1999/xlink" width="200" height="200"><path d="M455.322332 967.040704H196.294829a55.621562 55.621562 0 0 1-53.650165-57.311331V236.356436l179.467547-179.537954h448.633664a55.691969 55.691969 0 0 1 53.720572 57.311331v425.680968a28.409241 28.409241 0 0 0 56.818481 0V114.129813A112.651265 112.651265 0 0 0 770.745875 0H310.706271a28.162816 28.162816 0 0 0-20.206821 8.519252c-0.422442 0.352035-0.844884 0.492849-1.19692 0.774477L94.063806 204.532453a28.162816 28.162816 0 0 0-7.955995 21.122112 7.463146 7.463146 0 0 0 0 1.337734v682.59626a112.651265 112.651265 0 0 0 110.468647 114.129813h258.745874a28.409241 28.409241 0 1 0 0-56.818482" p-id="24093"></path><path d="M625.636964 312.255226H341.474147a28.409241 28.409241 0 0 0 0 56.818481h284.162817a28.409241 28.409241 0 0 0 0-56.818481m0 170.455445H341.474147a28.409241 28.409241 0 0 0 0 56.818482h284.162817a28.409241 28.409241 0 0 0 0-56.818482m113.636963 255.718372a85.262926 85.262926 0 1 0 85.262927 85.262926 85.262926 85.262926 0 0 0-85.262927-85.262926" p-id="24094"></path><path d="M739.273927 965.984598a142.081408 142.081408 0 1 1 142.011001-142.081408 142.292629 142.292629 0 0 1-142.011001 142.081408m0-340.981298a197.139714 197.139714 0 0 0-103.639164 29.9934 28.585259 28.585259 0 0 0-7.674367-1.548955H343.79758a28.409241 28.409241 0 0 0 0 56.818482h232.343234a198.618262 198.618262 0 1 0 162.851485-85.262927" p-id="24095"></path></svg>